<?xml version="1.0" encoding="utf-8"?>
<!-- Generator: Adobe Illustrator 16.0.0, SVG Export Plug-In . SVG Version: 6.00 Build 0)  -->
<!DOCTYPE svg PUBLIC "-//W3C//DTD SVG 1.1//EN" "http://www.w3.org/Graphics/SVG/1.1/DTD/svg11.dtd">
<svg version="1.1" id="Layer_1" xmlns="http://www.w3.org/2000/svg" xmlns:xlink="http://www.w3.org/1999/xlink" x="0px" y="0px"
	 width="745.409px" height="108.608px" viewBox="0 0 745.409 108.608" enable-background="new 0 0 745.409 108.608"
	 xml:space="preserve">
<g>
	<g>
		<path d="M39.304,108.608c-11.701,0-21.302-4.201-28.802-11.701C-0.299,86.105,0.001,72.754,0.001,54.304
			c0-18.451-0.3-31.803,10.501-42.604C18.002,4.2,27.603,0,39.304,0c13.65,0,22.051,4.801,29.702,12.301L55.204,26.102
			c-4.649-4.65-8.4-7.501-15.9-7.501c-5.7,0-10.2,2.101-13.201,5.551c-4.051,4.5-5.25,9.601-5.25,30.152
			c0,20.551,1.199,25.652,5.25,30.152c3.001,3.451,7.501,5.55,13.201,5.55c7.5,0,11.251-2.849,15.9-7.5l13.802,13.801
			C61.354,103.806,52.954,108.608,39.304,108.608z"/>
		<path d="M148.722,96.907c-7.501,7.5-16.652,11.701-28.803,11.701s-21.451-4.201-28.951-11.701
			C80.167,86.105,80.467,72.754,80.467,54.304c0-18.451-0.3-31.803,10.501-42.604C98.468,4.2,107.769,0,119.919,0
			s21.302,4.2,28.803,11.7c10.8,10.801,10.649,24.152,10.649,42.604C159.371,72.754,159.521,86.105,148.722,96.907z M133.271,24.302
			c-3-3.45-7.65-5.701-13.352-5.701c-5.7,0-10.5,2.251-13.5,5.701c-4.051,4.5-5.101,9.45-5.101,30.002
			c0,20.551,1.05,25.502,5.101,30.002c3,3.449,7.8,5.699,13.5,5.699c5.701,0,10.352-2.25,13.352-5.699
			c4.05-4.5,5.25-9.451,5.25-30.002C138.521,33.752,137.32,28.802,133.271,24.302z"/>
		<path d="M256.571,107.707V45.453L236.17,85.956h-14.101l-20.552-40.502v62.253h-20.851V0.9h20.551l27.902,57.753L256.871,0.9
			h20.552v106.806H256.571z"/>
		<path d="M344.718,67.504h-20.552v40.202h-20.851V0.9h41.402c22.052,0,35.251,15.151,35.251,33.302S366.77,67.504,344.718,67.504z
			 M343.667,19.501h-19.501v29.252h19.501c9.451,0,15.451-5.851,15.451-14.551S353.118,19.501,343.667,19.501z"/>
	</g>
	<g>
		<path d="M538.206,107.707V0.901h70.354v18.601h-49.503v25.052h42.152v18.601h-42.152v25.951h49.503v18.602H538.206z"/>
		<path d="M629.956,107.707V0.901h20.851v106.806H629.956z"/>
		<path d="M717.507,19.501v88.205h-20.852V19.501h-27.902V0.901h76.656v18.601H717.507z"/>
	</g>
	<g>
		<path fill="#32ABDF" d="M498.189,25.501c7.5,7.501,11.701,16.651,11.701,28.802c0,12.151-4.201,21.451-11.701,28.951
			c-10.801,10.802-24.152,10.501-42.604,10.501s-31.801,0.301-42.602-10.501c-7.5-7.5-11.701-16.8-11.701-28.951
			c0-12.15,4.201-21.301,11.701-28.802c10.801-10.801,24.15-10.65,42.602-10.65S487.389,14.701,498.189,25.501z M425.586,40.953
			c-3.451,3-5.701,7.65-5.701,13.351c0,5.701,2.25,10.5,5.701,13.5c4.5,4.052,9.449,5.101,30,5.101
			c20.553,0,25.504-1.049,30.004-5.101c3.449-3,5.699-7.799,5.699-13.5c0-5.7-2.25-10.351-5.699-13.351
			c-4.5-4.051-9.451-5.25-30.004-5.25C435.035,35.703,430.086,36.902,425.586,40.953z"/>
		<g>
			<g>
				<path fill="#8EC549" d="M455.512,67.355c-7.199,0-13.051-5.851-13.051-13.051s5.852-13.051,13.051-13.051
					s13.201,5.851,13.201,13.051S462.711,67.355,455.512,67.355z"/>
			</g>
		</g>
	</g>
</g>
</svg>
